<?xml version="1.0" standalone="no"?>
<!DOCTYPE svg PUBLIC "-//W3C//DTD SVG 20010904//EN"
 "http://www.w3.org/TR/2001/REC-SVG-20010904/DTD/svg10.dtd">
<svg version="1.0" xmlns="http://www.w3.org/2000/svg"
 width="547.000000pt" height="83.000000pt" viewBox="0 0 547.000000 83.000000"
 preserveAspectRatio="xMidYMid meet">

<g transform="translate(0.000000,83.000000) scale(0.100000,-0.100000)"
fill="#000000" stroke="none">
<path d="M947 263 c-4 -3 -7 -22 -7 -42 0 -30 6 -40 35 -58 23 -15 32 -28 29
-38 -7 -17 -30 -20 -39 -5 -8 13 -25 13 -25 -1 0 -15 26 -39 42 -39 24 0 38
23 38 61 0 31 -5 40 -27 51 -15 7 -29 22 -31 32 -4 16 0 18 27 13 32 -7 39 1
19 21 -13 13 -50 16 -61 5z"/>
<path d="M1063 198 c12 -100 16 -118 26 -118 5 0 11 20 14 45 2 26 8 49 11 53
10 10 24 -17 32 -61 5 -35 7 -37 19 -20 6 10 15 54 18 98 3 48 2 72 -3 60 -5
-11 -9 -32 -9 -46 -1 -14 -4 -28 -7 -32 -13 -13 -34 23 -35 60 l-1 38 -15 -52
c-9 -29 -19 -53 -23 -53 -5 0 -11 23 -15 50 -4 28 -10 50 -14 50 -4 0 -3 -33
2 -72z"/>
<path d="M1242 208 c-7 -35 -17 -76 -22 -92 -11 -34 -3 -49 11 -23 13 22 55
22 63 1 14 -37 18 -1 6 63 -23 130 -40 144 -58 51z m38 -33 c0 -28 -4 -35 -20
-35 -23 0 -27 32 -7 55 20 23 27 17 27 -20z"/>
<path d="M1340 176 c0 -79 3 -96 15 -96 11 0 15 11 15 40 0 22 4 40 9 40 28 0
41 -14 41 -46 0 -19 4 -34 10 -34 5 0 7 6 4 14 -3 8 -6 50 -7 93 l-2 78 -42 3
-43 3 0 -95z m78 37 c3 -19 -1 -23 -22 -23 -21 0 -26 5 -26 26 0 21 4 25 23
22 14 -2 23 -11 25 -25z"/>
<path d="M1485 240 c-31 -60 -6 -160 40 -160 27 0 55 51 55 101 0 81 -63 121
-95 59z m68 -33 c7 -45 -2 -84 -21 -92 -21 -8 -30 4 -32 40 -5 72 -1 85 24 85
19 0 24 -6 29 -33z"/>
<path d="M1658 193 c-3 -81 -18 -105 -36 -56 l-10 28 -1 -31 c-1 -32 14 -54
36 -54 20 0 34 47 38 123 2 52 0 67 -10 67 -11 0 -15 -20 -17 -77z"/>
<path d="M1732 245 c-26 -57 -7 -165 28 -165 9 0 20 3 24 8 4 4 13 7 19 7 18
0 15 77 -2 83 -10 3 -12 -1 -8 -18 8 -30 -1 -50 -23 -50 -21 0 -30 19 -30 65
0 18 3 40 6 49 7 18 39 22 49 6 4 -6 10 -8 15 -5 17 11 -14 45 -41 45 -18 0
-29 -8 -37 -25z"/>
<path d="M1887 264 c-3 -4 -9 -33 -13 -66 -4 -32 -11 -61 -15 -64 -5 -3 -9
-17 -9 -31 0 -25 1 -25 18 -10 23 21 62 22 62 2 0 -8 4 -15 8 -15 5 0 3 33 -3
72 -18 107 -28 132 -48 112z m33 -101 c0 -16 -6 -23 -20 -23 -15 0 -20 7 -20
29 0 30 19 46 32 27 4 -6 8 -21 8 -33z"/>
<path d="M1980 175 c0 -78 3 -95 15 -95 11 0 15 11 15 40 0 63 43 50 52 -15 3
-16 5 6 5 50 1 111 -1 115 -48 115 l-39 0 0 -95z m78 38 c3 -19 -1 -23 -22
-23 -21 0 -26 5 -26 26 0 21 4 25 23 22 14 -2 23 -11 25 -25z"/>
<path d="M2172 178 l-2 -98 39 0 c33 0 38 3 34 19 -3 11 -17 21 -33 25 -28 5
-29 7 -33 78 -3 67 -3 65 -5 -24z"/>
<path d="M2300 236 c0 -19 -4 -38 -10 -41 -5 -3 -10 -19 -10 -35 0 -16 -4 -40
-10 -54 -5 -14 -6 -26 -1 -26 5 0 11 7 15 15 8 21 53 19 65 -2 8 -14 10 -9 11
24 0 23 -4 45 -10 48 -5 3 -10 18 -10 33 0 42 -11 72 -26 72 -9 0 -14 -12 -14
-34z m30 -62 c0 -28 -3 -35 -17 -32 -17 4 -19 21 -8 56 9 26 25 11 25 -24z"/>
<path d="M2409 248 c-17 -31 -17 -96 0 -135 14 -34 38 -42 59 -21 10 10 15 10
22 -2 7 -11 10 -1 10 33 0 26 -4 47 -10 47 -5 0 -13 0 -17 1 -5 1 -6 -13 -5
-31 3 -28 1 -31 -19 -28 -27 4 -40 43 -32 94 5 27 10 34 28 34 13 0 25 -6 28
-12 2 -7 8 -9 13 -5 14 13 -11 42 -39 45 -18 2 -29 -3 -38 -20z"/>
<path d="M2543 175 c0 -55 2 -81 4 -57 4 39 6 42 34 42 26 0 29 -3 29 -34 0
-19 5 -38 10 -41 6 -4 10 28 10 89 0 57 -4 96 -10 96 -5 0 -10 -13 -10 -29 0
-56 -56 -53 -63 2 -2 18 -4 -13 -4 -68z"/>
<path d="M2678 188 c4 -87 12 -108 43 -108 33 0 49 39 49 117 0 42 -4 73 -10
73 -6 0 -10 -29 -10 -67 0 -79 -11 -103 -37 -87 -14 9 -19 27 -21 83 -2 39 -6
71 -10 71 -4 0 -5 -37 -4 -82z"/>
<path d="M2810 175 l0 -95 31 0 c17 0 37 6 45 14 17 17 19 67 2 84 -8 8 -8 15
2 27 10 12 10 21 2 40 -9 20 -19 25 -47 25 l-35 0 0 -95z m63 53 c7 -21 -4
-38 -24 -38 -14 0 -19 7 -19 25 0 18 5 25 19 25 11 0 21 -6 24 -12z m5 -75
c10 -17 -6 -43 -27 -43 -12 0 -24 37 -16 50 10 15 33 12 43 -7z"/>
<path d="M2940 175 c0 -57 4 -95 10 -95 6 0 10 38 10 95 0 57 -4 95 -10 95 -6
0 -10 -38 -10 -95z"/>
<path d="M2997 263 c-12 -11 -8 -21 13 -26 18 -5 20 -14 20 -84 0 -55 3 -74
10 -63 6 8 9 41 8 74 -1 45 2 61 15 71 28 21 19 35 -21 35 -21 0 -42 -3 -45
-7z"/>
<path d="M3110 255 c0 -8 7 -15 15 -15 12 0 15 -16 15 -80 0 -47 4 -80 10 -80
6 0 10 28 10 64 0 73 6 96 26 96 8 0 14 7 14 15 0 11 -12 15 -45 15 -33 0 -45
-4 -45 -15z"/>
<path d="M3246 248 c-3 -13 -6 -35 -6 -50 0 -15 -4 -30 -10 -33 -5 -3 -10 -25
-10 -48 1 -33 3 -38 11 -24 5 9 21 17 34 17 13 0 29 -8 35 -17 8 -14 9 -3 4
42 -3 33 -10 64 -15 70 -5 5 -9 22 -9 37 0 34 -25 38 -34 6z m44 -87 c0 -14
-6 -21 -20 -21 -15 0 -20 7 -20 28 0 16 3 31 6 35 10 10 34 -20 34 -42z"/>
<path d="M3400 175 l0 -95 31 0 c17 0 37 6 45 14 16 16 19 72 5 80 -5 4 -5 18
2 35 14 39 -4 61 -49 61 l-34 0 0 -95z m64 56 c9 -14 -4 -41 -19 -41 -15 0
-24 19 -17 38 5 14 28 16 36 3z m0 -67 c20 -8 20 -21 2 -40 -23 -22 -36 -17
-36 16 0 31 6 35 34 24z"/>
<path d="M3530 175 c0 -57 4 -95 10 -95 6 0 10 38 10 95 0 57 -4 95 -10 95 -6
0 -10 -38 -10 -95z"/>
<path d="M3590 256 c0 -8 7 -16 15 -20 11 -4 15 -23 15 -81 0 -43 4 -75 10
-75 6 0 10 28 10 64 0 73 6 96 26 96 8 0 11 6 8 15 -8 20 -84 21 -84 1z"/>
<path d="M3700 255 c0 -8 7 -15 15 -15 12 0 15 -14 15 -64 0 -68 6 -96 21 -96
5 0 9 36 9 80 0 64 3 80 15 80 8 0 15 7 15 15 0 11 -12 15 -45 15 -33 0 -45
-4 -45 -15z"/>
<path d="M3834 175 c0 -55 1 -76 3 -47 2 29 2 74 0 100 -2 26 -3 2 -3 -53z"/>
<path d="M3886 243 c4 -16 11 -33 16 -40 5 -6 12 -37 15 -67 7 -68 23 -74 23
-10 0 25 7 61 16 79 9 19 14 42 12 52 -3 14 -7 10 -18 -14 -18 -41 -29 -41
-43 -3 -14 38 -30 39 -21 3z"/>
<path d="M4020 237 c0 -18 -7 -59 -15 -91 -15 -59 -12 -86 6 -53 12 21 59 23
59 2 0 -8 5 -15 10 -15 11 0 5 66 -10 110 -5 14 -11 37 -14 53 -9 39 -36 35
-36 -6z m30 -39 c0 -7 3 -23 6 -35 5 -19 2 -23 -15 -23 -22 0 -25 10 -15 48 7
23 24 31 24 10z"/>
<path d="M4187 263 c-4 -3 -7 -23 -7 -44 0 -32 4 -39 30 -51 21 -9 30 -20 30
-35 0 -25 -11 -28 -41 -13 -22 12 -27 -8 -7 -28 28 -28 68 -1 68 45 0 34 -7
44 -42 62 -42 21 -37 45 7 38 36 -6 43 1 23 21 -13 13 -50 16 -61 5z"/>
<path d="M4326 261 c-4 -5 -9 -37 -12 -70 -4 -34 -11 -61 -15 -61 -5 0 -9 -12
-9 -27 0 -25 1 -25 18 -10 23 21 62 22 62 2 0 -8 4 -15 8 -15 8 0 -9 127 -23
168 -8 23 -20 28 -29 13z m34 -98 c0 -16 -6 -23 -20 -23 -15 0 -20 7 -20 29 0
30 19 46 32 27 4 -6 8 -21 8 -33z"/>
<path d="M4420 174 c0 -72 3 -95 13 -91 7 2 12 22 13 45 0 23 4 45 8 49 10 10
26 -17 26 -44 0 -13 5 -23 10 -23 6 0 10 -7 10 -16 0 -8 5 -12 10 -9 13 8 13
185 0 185 -5 0 -10 -19 -10 -43 0 -24 -3 -47 -7 -50 -9 -10 -29 23 -38 61 -3
18 -13 32 -21 32 -11 0 -14 -20 -14 -96z"/>
<path d="M4567 263 c-4 -3 -7 -22 -7 -42 0 -30 6 -40 35 -59 19 -12 35 -27 35
-32 0 -16 -30 -24 -43 -11 -14 14 -27 14 -27 0 0 -15 26 -39 42 -39 24 0 38
23 38 61 0 31 -5 40 -27 51 -15 7 -29 22 -31 32 -4 16 0 18 27 13 32 -7 39 1
19 21 -13 13 -50 16 -61 5z"/>
<path d="M4670 257 c0 -7 9 -18 20 -24 15 -10 20 -26 23 -85 l3 -73 2 72 c2
61 5 75 22 85 35 22 24 38 -25 38 -30 0 -45 -4 -45 -13z"/>
<path d="M4791 175 c-1 -60 2 -95 9 -95 5 0 10 18 10 40 0 38 2 40 30 40 28 0
30 -2 30 -40 0 -22 5 -40 10 -40 6 0 10 38 10 95 0 52 -4 95 -9 95 -6 0 -11
-15 -13 -32 -2 -28 -7 -33 -28 -33 -21 0 -26 5 -28 33 -7 67 -20 28 -21 -63z"/>
<path d="M4946 203 c-14 -58 -22 -162 -9 -110 6 22 46 23 67 1 20 -20 21 -7 1
66 -8 30 -15 67 -15 83 0 53 -27 29 -44 -40z m38 -9 c11 -28 6 -54 -9 -54 -10
0 -15 11 -15 35 0 36 13 47 24 19z"/>
<path d="M5110 175 l0 -95 35 0 c28 0 35 4 35 19 0 13 -8 21 -22 23 -21 3 -23
9 -26 76 -4 107 -22 88 -22 -23z"/>
<path d="M5200 256 c0 -8 7 -16 15 -20 11 -4 15 -23 15 -81 0 -43 4 -75 10
-75 6 0 10 32 10 75 0 58 4 77 15 81 32 13 16 34 -25 34 -28 0 -40 -4 -40 -14z"/>
<path d="M5310 175 l0 -95 28 0 c55 0 84 70 62 148 -10 40 -12 42 -50 42 l-40
0 0 -95z m68 53 c7 -7 12 -28 12 -48 0 -37 -14 -60 -37 -60 -9 0 -13 17 -13
60 0 61 11 75 38 48z"/>
<path d="M150 200 c0 -5 5 -10 10 -10 6 0 10 5 10 10 0 6 -4 10 -10 10 -5 0
-10 -4 -10 -10z"/>
<path d="M650 200 c0 -5 5 -10 10 -10 6 0 10 5 10 10 0 6 -4 10 -10 10 -5 0
-10 -4 -10 -10z"/>
<path d="M5442 105 c0 -16 2 -22 5 -12 2 9 2 23 0 30 -3 6 -5 -1 -5 -18z"/>
</g>
</svg>
